<svg width="102" height="130" viewBox="0 0 102 130" fill="none" xmlns="http://www.w3.org/2000/svg">
<g clip-path="url(#clip0_210_854)">
<path d="M22.3631 50.6808H0V129.985H22.3631V50.6808Z" fill="#33CC66"/>
<path d="M79.3 50.6808C79.3455 58.2014 76.3789 65.4339 71.0487 70.7975C65.7185 76.1611 58.4582 79.2196 50.8548 79.3044V79.3044C37.328 79.3934 24.3866 84.7737 14.8578 94.2698C5.32904 103.766 -0.0125446 116.606 2.21234e-05 129.985H22.3631C22.3299 122.463 25.3047 115.233 30.6389 109.871C35.9732 104.509 43.2343 101.45 50.8393 101.361C64.3645 101.276 77.3051 95.8964 86.8298 86.3986C96.3546 76.9007 101.688 64.0582 101.663 50.6808H79.3Z" fill="#000099"/>
<path d="M50.8395 -0.0305176C37.3156 0.0584791 24.3773 5.43974 14.8535 14.9367C5.32965 24.4338 -0.00506811 37.2739 0.0156853 50.65H22.3633C22.322 43.1281 25.292 35.8956 30.6246 30.5324C35.9573 25.1693 43.2192 22.1113 50.824 22.0265C58.4302 22.1073 65.6944 25.164 71.0279 30.528C76.3615 35.8921 79.3302 43.1269 79.2848 50.65H101.648C101.673 37.2753 96.3414 24.4351 86.8201 14.9377C77.2987 5.44024 64.362 0.0584899 50.8395 -0.0305176V-0.0305176Z" fill="#3399FF"/>
</g>
<defs>
<clipPath id="clip0_210_854">
<rect width="102" height="130" fill="white"/>
</clipPath>
</defs>
</svg>